<?xml version="1.0" standalone="no"?>
<!DOCTYPE svg PUBLIC "-//W3C//DTD SVG 20010904//EN"
 "http://www.w3.org/TR/2001/REC-SVG-20010904/DTD/svg10.dtd">
<svg version="1.0" xmlns="http://www.w3.org/2000/svg"
 width="300.000000pt" height="144.000000pt" viewBox="0 0 300.000000 144.000000"
 preserveAspectRatio="xMidYMid meet">
<metadata>
Created by potrace 1.10, written by Peter Selinger 2001-2011
</metadata>
<g transform="translate(0.000000,144.000000) scale(0.100000,-0.100000)"
fill="#000000" stroke="none">
<path d="M967 1334 c-4 -4 -7 -17 -7 -30 0 -25 -43 -65 -113 -106 -54 -32 -77
-63 -83 -115 -2 -21 -6 -47 -9 -58 -2 -11 0 -26 4 -33 6 -10 16 -1 34 30 15
24 52 70 83 102 30 33 62 73 70 88 27 53 44 30 44 -62 0 -53 -3 -61 -37 -96
-32 -33 -56 -49 -104 -71 -18 -8 -1 34 24 59 15 16 27 34 27 41 0 13 40 43 52
39 4 -1 4 6 1 15 -4 11 -3 14 5 9 8 -5 10 -2 6 9 -6 14 -11 12 -35 -11 -45
-44 -137 -167 -154 -207 -20 -47 -20 -83 -1 -47 9 15 48 43 102 70 71 36 95
55 119 90 27 40 30 53 29 115 -1 51 -8 84 -25 123 -14 29 -28 50 -32 46z m-95
-183 c-19 -20 -35 -29 -46 -25 -9 3 -13 10 -10 16 3 5 12 4 22 -4 9 -7 13 -8
10 -3 -8 13 1 26 27 41 31 18 30 9 -3 -25z"/>
<path d="M555 1275 c-9 -22 -17 -65 -18 -97 -1 -47 4 -62 28 -93 16 -21 48
-46 74 -57 25 -11 58 -32 73 -46 l28 -25 -9 31 c-11 37 -87 139 -125 167 -32
24 -32 31 -5 46 12 6 19 7 15 1 -3 -5 16 -34 42 -64 26 -30 52 -64 59 -74 10
-16 12 -12 12 29 1 64 -10 81 -75 123 -35 22 -61 48 -69 67 l-13 31 -17 -39z
m21 -81 c-3 -9 4 -29 16 -47 12 -17 16 -27 8 -22 -8 5 -11 4 -6 -3 4 -6 13 -9
21 -5 10 3 15 -1 15 -12 0 -9 4 -14 8 -11 4 2 8 -5 9 -17 0 -12 -1 -16 -4 -9
-3 6 -9 10 -14 6 -22 -13 -74 76 -65 112 4 13 9 24 12 24 3 0 3 -7 0 -16z"/>
<path d="M2004 990 c0 -52 1 -74 3 -47 2 26 2 68 0 95 -2 26 -3 4 -3 -48z"/>
<path d="M2134 995 c0 -49 1 -71 3 -48 2 23 2 64 0 90 -2 26 -3 8 -3 -42z"/>
<path d="M698 843 c17 -2 47 -2 65 0 17 2 3 4 -33 4 -36 0 -50 -2 -32 -4z"/>
<path d="M1618 843 c18 -2 45 -2 60 0 15 2 0 4 -33 4 -33 0 -45 -2 -27 -4z"/>
<path d="M1154 585 c0 -55 1 -76 3 -47 2 29 2 74 0 100 -2 26 -3 2 -3 -53z"/>
<path d="M2338 643 c34 -2 88 -2 120 0 31 2 3 3 -63 3 -66 0 -92 -1 -57 -3z"/>
<path d="M2653 565 c0 -33 2 -45 4 -27 2 18 2 45 0 60 -2 15 -4 0 -4 -33z"/>
<path d="M353 593 c32 -2 81 -2 110 0 29 2 3 3 -58 3 -60 0 -84 -1 -52 -3z"/>
</g>
</svg>
